<svg width="97" height="32" viewBox="0 0 97 32" fill="none" xmlns="http://www.w3.org/2000/svg">
<g clip-path="url(#clip0_138_68830)">
<path d="M37.9761 16.3738H38.9099H39.8428H40.7764H41.7102V15.1835V14.0013V12.8199V11.6385H42.6262H43.5422H44.4583H45.3743C46.118 11.6385 46.7918 11.4993 47.3971 11.2387C48.0024 10.9782 48.5297 10.6043 48.9611 10.135C49.3934 9.66566 49.7394 9.09277 49.9729 8.44945C50.2064 7.80614 50.3359 7.08517 50.3359 6.31157C50.3359 5.5388 50.2144 4.8259 49.9729 4.1834C49.7306 3.5401 49.4022 2.98419 48.97 2.51486C48.5377 2.04552 48.0024 1.68059 47.4059 1.42892C46.8094 1.17646 46.118 1.03809 45.3743 1.03809H43.5245H41.6756H39.8259H37.9761V4.8696V8.70111V12.5334V16.3738ZM73.5078 16.3738H74.4415H75.3752H76.3081H77.2418L77.233 14.1316L77.2249 11.8901L77.2161 9.64868L77.2072 7.40642L78.7455 9.64868L80.2845 11.8901L81.8228 14.1316L83.361 16.3738H84.3809H85.4007H86.4213H87.4412V12.5415V8.70111V4.8696V1.03809H86.5075H85.5738H84.6409H83.7072V3.37502V5.71278V8.04972V10.3867L82.0908 8.04972L80.5002 5.71278L78.8839 3.37502L77.2765 1.03809H76.3347H75.3921H74.4503H73.5078V4.8696V8.70111V12.5334V16.3738ZM56.1702 16.3738H58.9271H61.684H64.4417H67.1986V15.5655V14.7571V13.9495V13.1411H65.3746H63.5514H61.7274H59.9034V10.1091V7.09407V4.06122V1.03809H58.9705H58.0367H57.1031H56.1702V4.8696V8.70111V12.5334V16.3738ZM41.7102 8.41466V7.37161V6.32938V5.28633V4.24409H42.4531H43.1961H43.9399H44.6829C44.9943 4.24409 45.2624 4.29588 45.4958 4.39137C45.7292 4.48766 45.9281 4.63493 46.0834 4.81781C46.2388 4.99988 46.3596 5.21755 46.4376 5.46922C46.5157 5.72087 46.5583 5.99923 46.5583 6.30348C46.5583 6.60775 46.5157 6.89419 46.4376 7.14585C46.3596 7.39832 46.2388 7.62408 46.0746 7.81505C45.9103 8.00603 45.7115 8.1452 45.4692 8.24959C45.2278 8.35397 44.942 8.40575 44.6136 8.40575H43.8875H43.1615H42.4362L41.7102 8.41466Z" fill="white"/>
<path d="M38.52 30.754V25.4012V20.0492H39.0215H39.5229V25.4012V30.754H39.0215H38.52Z" fill="white"/>
<path d="M47.4317 25.4708C47.2764 24.8712 47.0083 24.4197 46.6453 24.1065C46.2734 23.8023 45.8065 23.6461 45.2278 23.6372C44.7867 23.6461 44.4148 23.7416 44.0952 23.9067C43.7757 24.0717 43.5245 24.3323 43.3265 24.6624C43.1188 24.9926 42.9715 25.3494 42.8677 25.7225C42.7646 26.0963 42.7212 26.4961 42.7212 26.9217C42.7212 27.3392 42.7727 27.7301 42.8677 28.1039C42.9635 28.4769 43.11 28.816 43.3088 29.1462C43.5076 29.4763 43.758 29.728 44.0783 29.9019C44.3979 30.0759 44.7778 30.1625 45.2189 30.1714C45.8669 30.1625 46.386 29.9804 46.7571 29.6414C47.1379 29.2942 47.3794 28.7812 47.4921 28.1039H47.9501H48.4081C48.3389 28.5376 48.2181 28.9293 48.0539 29.2675C47.8897 29.6155 47.674 29.9108 47.4059 30.1714C47.1467 30.4319 46.8264 30.6318 46.4634 30.771C46.1003 30.9102 45.6858 30.9709 45.2189 30.9798C44.6401 30.9709 44.1298 30.8665 43.6976 30.6666C43.2654 30.4667 42.9112 30.1803 42.6343 29.7976C42.3582 29.4245 42.1505 28.99 42.0121 28.5117C41.8744 28.0343 41.8052 27.5043 41.8052 26.9217C41.8052 26.3658 41.8824 25.8447 42.0297 25.3664C42.1763 24.889 42.4017 24.4545 42.6954 24.0547C42.9804 23.6639 43.3346 23.3596 43.758 23.1598C44.1822 22.9599 44.666 22.8555 45.2189 22.8385C46.0923 22.8296 46.7838 23.0465 47.2933 23.481C47.8036 23.9155 48.1401 24.5847 48.2962 25.4619H47.8551H47.4317V25.4708Z" fill="white"/>
<path d="M53.3519 30.9619C52.8682 30.9538 52.4189 30.8664 52.0125 30.6925C51.606 30.5193 51.243 30.2579 50.9323 29.9197C50.595 29.5806 50.3438 29.1639 50.1796 28.6598C50.0074 28.1557 49.9204 27.5738 49.9204 26.9046C49.9204 26.322 49.9897 25.792 50.137 25.3057C50.2835 24.8274 50.4911 24.3937 50.785 24.011C51.0699 23.629 51.4329 23.3418 51.8571 23.1508C52.2886 22.9598 52.79 22.8555 53.3608 22.8466C53.9395 22.8555 54.441 22.9598 54.8821 23.1508C55.3144 23.3418 55.6774 23.6371 55.9623 24.011C56.2473 24.3937 56.455 24.8274 56.5934 25.3057C56.7319 25.7839 56.8011 26.322 56.8011 26.9046C56.7922 27.5212 56.7141 28.0772 56.5588 28.5643C56.4034 29.0506 56.17 29.4762 55.8673 29.8323C55.5647 30.2061 55.2017 30.4845 54.7783 30.6755C54.3637 30.8575 53.888 30.9619 53.3519 30.9619ZM55.8843 26.9046C55.8931 26.4353 55.8416 26.0097 55.7466 25.6188C55.6508 25.2272 55.5043 24.8801 55.3055 24.5758C55.1067 24.2715 54.8475 24.0369 54.519 23.8807C54.1907 23.7245 53.8019 23.646 53.343 23.6371C52.8939 23.646 52.5051 23.7334 52.1855 23.8985C51.8652 24.0636 51.606 24.3063 51.4072 24.6276C51.2084 24.9496 51.0619 25.2968 50.9669 25.6795C50.8719 26.0615 50.8196 26.4612 50.8196 26.8957C50.8196 27.3821 50.8711 27.8166 50.9838 28.2074C51.0965 28.5991 51.2607 28.9373 51.4764 29.2327C51.6841 29.5369 51.9521 29.7627 52.2628 29.9197C52.5743 30.0759 52.9374 30.1544 53.343 30.1544C53.793 30.1454 54.1818 30.0589 54.5102 29.8938C54.8386 29.7279 55.0978 29.4762 55.3055 29.1461C55.4955 28.8249 55.6428 28.4769 55.7378 28.1039C55.8328 27.73 55.8843 27.3303 55.8843 26.9046Z" fill="white"/>
<path d="M59.4975 30.7539H59.0741H58.6499V26.8957V23.0375H59.0741H59.4975V23.5764V24.1153C59.6617 23.9154 59.8428 23.7415 60.0159 23.5853C60.197 23.4291 60.3789 23.2989 60.5688 23.1856C60.7589 23.0723 60.9577 22.9857 61.1742 22.9339C61.3899 22.8724 61.6322 22.8465 61.8825 22.8465C62.3583 22.8384 62.7817 22.9161 63.1616 23.099C63.5424 23.2811 63.8708 23.5594 64.1557 23.9413C64.2426 24.0716 64.3199 24.2108 64.3723 24.35C64.4237 24.4892 64.4584 24.6275 64.4841 24.7756C64.5018 24.9237 64.5107 25.071 64.5187 25.2271C64.5276 25.3841 64.5276 25.5403 64.5276 25.7054V28.2252V30.745H64.0953H63.6719V28.2341V25.7224C63.6808 25.0273 63.5246 24.5062 63.2051 24.159C62.8855 23.8111 62.4017 23.6371 61.7529 23.6371C61.4849 23.646 61.2434 23.6808 61.0189 23.7593C60.7935 23.837 60.6035 23.9413 60.4304 24.0894C60.2582 24.2286 60.1109 24.3937 59.9901 24.5668C59.8686 24.7408 59.7656 24.9318 59.6875 25.1406C59.6182 25.3752 59.5667 25.6099 59.5402 25.8527C59.5056 26.0962 59.4975 26.3487 59.4975 26.6003V28.6767V30.7539Z" fill="white"/>
<path d="M71.062 30.754V25.4012V20.0492H72.9544H74.8477C75.193 20.0492 75.5045 20.0662 75.7806 20.101C76.0574 20.1358 76.3078 20.1884 76.5332 20.2661C76.7489 20.3535 76.9478 20.4489 77.1208 20.5533C77.2938 20.6658 77.4315 20.7791 77.553 20.9174C77.7865 21.2047 77.9587 21.526 78.0714 21.882C78.1841 22.2389 78.2356 22.6208 78.2356 23.0375C78.2267 23.6201 78.1149 24.1065 77.9072 24.5062C77.6996 24.9059 77.3888 25.2102 76.9824 25.419C76.5847 25.6358 76.1525 25.792 75.7032 25.8875C75.2534 25.9919 74.7784 26.0356 74.2769 26.0267H73.171H72.0641V28.3903V30.754H71.5627H71.062ZM74.2769 25.1665C74.7438 25.1754 75.1503 25.1406 75.5134 25.0621C75.8763 24.9925 76.1871 24.8801 76.4551 24.732C76.7054 24.5847 76.8962 24.3589 77.0258 24.0636C77.1554 23.7674 77.2158 23.3944 77.2246 22.9598C77.2327 22.2817 77.0081 21.7695 76.5678 21.4216C76.1266 21.0744 75.461 20.9005 74.5707 20.9005H73.3174H72.0641V23.0375V25.1754H73.171L74.2769 25.1665Z" fill="white"/>
<path d="M80.1548 30.754V25.4012V20.0492H80.5782H81.0016V25.4012V30.754H80.5782H80.1548Z" fill="white"/>
<path d="M88.3484 23.0464H88.7718H89.1952V26.9046V30.762H88.7718H88.3484V30.232V29.6939C88.2969 29.7546 88.2446 29.8242 88.1754 29.8849C88.1149 29.9544 88.0457 30.0151 87.9765 30.0928C87.9073 30.1713 87.83 30.2409 87.7431 30.3105C87.657 30.3801 87.5709 30.4497 87.4758 30.5192C87.3801 30.5799 87.285 30.6317 87.1813 30.6843C87.0783 30.7361 86.9567 30.7798 86.8359 30.8146C86.7063 30.8575 86.5679 30.8923 86.4213 30.919C86.2741 30.9449 86.1187 30.9619 85.9545 30.9619C85.4699 30.9538 85.0554 30.8842 84.7093 30.745C84.364 30.6058 84.0959 30.3971 83.9059 30.1276C83.7072 29.8671 83.5518 29.5628 83.4568 29.2327C83.361 28.9025 83.3095 28.5295 83.3184 28.1208V25.584V23.0464H83.7417H84.1651V25.5751V28.1038C84.1563 28.7811 84.3124 29.2942 84.632 29.6413C84.9515 29.9803 85.4353 30.1624 86.0841 30.1624C86.4471 30.1543 86.7667 30.0847 87.0436 29.9455C87.3197 29.8064 87.562 29.5976 87.7608 29.3289C87.9596 29.0676 88.1061 28.7641 88.2019 28.4162C88.2969 28.069 88.3484 27.6774 88.3484 27.2437V25.1406V23.0464Z" fill="white"/>
<path d="M92.0387 28.3467C92.1514 28.9722 92.3928 29.4326 92.7648 29.7369C93.1366 30.0411 93.6381 30.1892 94.2684 30.1714C94.5887 30.1625 94.8568 30.1277 95.0894 30.05C95.3228 29.9715 95.5136 29.8671 95.6601 29.728C95.8074 29.5896 95.9193 29.4415 95.9974 29.2764C96.0754 29.1114 96.1093 28.9293 96.1093 28.7375C96.1093 28.5991 96.0923 28.477 96.0666 28.3556C96.0409 28.2342 95.9885 28.1379 95.9282 28.0513C95.8589 27.9647 95.7809 27.8862 95.6859 27.8167C95.5909 27.7471 95.4959 27.6864 95.3752 27.6427C95.3317 27.6168 95.2802 27.5909 95.2198 27.565C95.1586 27.5391 95.0983 27.5124 95.0291 27.4954C94.9598 27.4695 94.8906 27.4517 94.8221 27.4258L94.6145 27.374C94.4672 27.3473 94.3207 27.3125 94.1734 27.2866C94.0269 27.2608 93.8707 27.226 93.7242 27.2001C93.655 27.1742 93.5769 27.1475 93.5077 27.1216C93.4393 27.0957 93.3701 27.0787 93.3008 27.0609C93.2316 27.0439 93.1624 27.0261 93.0843 27.0091C93.0151 26.9913 92.9378 26.9654 92.8686 26.9395C92.7213 26.8958 92.5836 26.844 92.4532 26.7825C92.3236 26.7218 92.2029 26.6611 92.0902 26.5827C91.9783 26.505 91.8745 26.4095 91.7795 26.314C91.6845 26.2096 91.6064 26.0963 91.5372 25.9749C91.468 25.8447 91.4164 25.7055 91.3818 25.5574C91.3472 25.4012 91.3303 25.2362 91.3303 25.0541C91.3303 24.7239 91.3907 24.4286 91.5026 24.1591C91.6153 23.8897 91.7964 23.6639 92.0298 23.4551C92.2544 23.2553 92.5225 23.1072 92.8428 23.0036C93.1624 22.8992 93.5255 22.8466 93.9319 22.8466C94.761 22.8296 95.4097 23.0206 95.8936 23.4292C96.3773 23.8371 96.6711 24.4456 96.8007 25.271H96.3604H95.9193C95.8847 24.9756 95.8074 24.715 95.7036 24.5063C95.5997 24.2975 95.4525 24.1243 95.2802 24.0021C95.0983 23.8808 94.8906 23.7942 94.666 23.7335C94.4415 23.672 94.1911 23.6461 93.9142 23.6461C93.3612 23.6639 92.9467 23.7764 92.6609 24.0021C92.3759 24.2287 92.2375 24.55 92.2375 24.9756C92.2375 25.097 92.2544 25.2192 92.289 25.3236C92.3236 25.4271 92.3759 25.5226 92.4532 25.6011C92.5225 25.6796 92.6005 25.7573 92.6866 25.8269C92.7736 25.8964 92.8774 25.9571 92.9893 26.0097C93.2227 26.1141 93.4819 26.2096 93.75 26.2873C94.0181 26.3658 94.3118 26.4443 94.6145 26.505C94.7698 26.5398 94.9171 26.5827 95.0636 26.6263C95.2109 26.67 95.3575 26.7137 95.5048 26.7655C95.6432 26.8173 95.7809 26.8788 95.9113 26.9395C96.0409 27.0091 96.1527 27.0787 96.2654 27.1653C96.3773 27.2438 96.4811 27.3392 96.5761 27.4436C96.6711 27.5472 96.7491 27.6605 96.8184 27.7908C96.8788 27.921 96.9311 28.0602 96.9569 28.2164C96.9915 28.3726 96.9995 28.5466 96.9995 28.7294C96.9915 29.0944 96.9222 29.4245 96.7838 29.7021C96.6453 29.9804 96.4296 30.2151 96.1527 30.4061C95.8678 30.597 95.5482 30.7451 95.1852 30.8406C94.8221 30.9361 94.4156 30.9879 93.9745 30.9879C93.5342 30.9798 93.1447 30.9191 92.8082 30.7888C92.4709 30.6577 92.1771 30.4668 91.9437 30.2151C91.7014 29.9715 91.5203 29.7021 91.3818 29.3897C91.2523 29.0855 91.1742 28.7464 91.1484 28.3726H91.5807H92.0387V28.3467Z" fill="white"/>
<rect y="0.5" width="30.8372" height="31" fill="#F7E82E"/>
<path fill-rule="evenodd" clip-rule="evenodd" d="M6.2168 11.734C7.04346 11.2752 8.20093 10.9143 9.12823 10.9143C10.899 10.9143 11.3088 11.734 12.179 11.734C13.0491 11.734 13.9426 10.9143 15.5516 10.9143C17.0158 10.9143 17.7894 11.734 19.0901 11.734C20.3942 11.734 20.1229 10.9143 21.9581 10.9143C23.7838 10.9143 24.6193 11.734 24.6193 11.734V13.825C24.6193 13.825 23.6445 12.9527 22.1127 12.9316C20.5922 12.9138 20.6324 13.825 19.0942 13.825C17.5552 13.825 17.432 12.9316 15.6249 12.9316C13.8186 12.9316 13.5457 13.825 12.1508 13.825C10.751 13.825 10.4894 12.8952 9.03162 12.9138C7.57465 12.9316 6.2168 13.825 6.2168 13.825V11.734Z" fill="#28A8E0"/>
<path fill-rule="evenodd" clip-rule="evenodd" d="M6.2168 16.611C7.04346 16.1513 8.20093 15.7913 9.12823 15.7913C10.899 15.7913 11.3088 16.611 12.179 16.611C13.0491 16.611 13.9426 15.7913 15.5516 15.7913C17.0158 15.7913 17.7894 16.611 19.0901 16.611C20.3942 16.611 20.1229 15.7913 21.9581 15.7913C23.7838 15.7913 24.6193 16.611 24.6193 16.611V18.7027C24.6193 18.7027 23.6445 17.8239 22.1127 17.8086C20.5922 17.7932 20.6324 18.7027 19.0942 18.7027C17.5552 18.7027 17.432 17.8086 15.6249 17.8086C13.8186 17.8086 13.5457 18.7027 12.1508 18.7027C10.751 18.7027 10.4894 17.7746 9.03162 17.7932C7.57465 17.8086 6.2168 18.7027 6.2168 18.7027V16.611Z" fill="#28A8E0"/>
<path fill-rule="evenodd" clip-rule="evenodd" d="M6.2168 21.483C7.04346 21.0218 8.20093 20.6633 9.12823 20.6633C10.899 20.6633 11.3088 21.483 12.179 21.483C13.0491 21.483 13.9426 20.6633 15.5516 20.6633C17.0158 20.6633 17.7894 21.483 19.0901 21.483C20.3942 21.483 20.1229 20.6633 21.9581 20.6633C23.7838 20.6633 24.6193 21.483 24.6193 21.483V23.5813C24.6193 23.5813 23.6445 22.7017 22.1127 22.6831C20.5922 22.6669 20.6324 23.5813 19.0942 23.5813C17.5552 23.5813 17.432 22.6831 15.6249 22.6831C13.8186 22.6831 13.5457 23.5813 12.1508 23.5813C10.751 23.5813 10.4894 22.6499 9.03162 22.6669C7.57465 22.6831 6.2168 23.5813 6.2168 23.5813V21.483Z" fill="#28A8E0"/>
<path fill-rule="evenodd" clip-rule="evenodd" d="M14.5459 28.247L16.8802 16.4562L8.58643 20.1233L13.4334 4.6416H17.3818L12.7802 15.3745L20.9696 12.0442L14.5459 28.247Z" fill="#E62A2B"/>
</g>
<defs>
<clipPath id="clip0_138_68830">
<rect width="96.9997" height="31" fill="white" transform="translate(0 0.5)"/>
</clipPath>
</defs>
</svg>
