<svg width="319" height="102" viewBox="0 0 319 102" fill="none" xmlns="http://www.w3.org/2000/svg">
<path d="M124.974 52.2228H128.037H131.098H134.161H137.224V48.3294V44.4623V40.598V36.7336H140.229H143.235H146.24H149.245C151.685 36.7336 153.895 36.2784 155.881 35.4261C157.867 34.5738 159.597 33.351 161.012 31.8158C162.43 30.2807 163.566 28.4067 164.331 26.3024C165.097 24.1982 165.522 21.8399 165.522 19.3095C165.522 16.7818 165.124 14.4499 164.331 12.3484C163.537 10.2441 162.459 8.42578 161.041 6.89062C159.623 5.35547 157.867 4.16174 155.91 3.33856C153.953 2.51276 151.685 2.06012 149.245 2.06012H143.177H137.111H131.042H124.974V14.5929V27.1256V39.661V52.2228ZM241.541 52.2228H244.604H247.667H250.728H253.791L253.762 44.8885L253.736 37.5568L253.707 30.2251L253.678 22.8907L258.724 30.2251L263.773 37.5568L268.82 44.8885L273.866 52.2228H277.212H280.558H283.906H287.252V39.6875V27.1256V14.5929V2.06012H284.188H281.125H278.065H275.001V9.70419V17.3509V24.9949V32.639L269.699 24.9949L264.481 17.3509L259.178 9.70419L253.905 2.06012H250.815H247.723H244.633H241.541V14.5929V27.1256V39.661V52.2228ZM184.662 52.2228H193.707H202.751H211.799H220.843V49.5787V46.9345V44.293V41.6488H214.859H208.878H202.894H196.91V31.7311V21.869V11.9487V2.06012H193.849H190.786H187.723H184.662V14.5929V27.1256V39.661V52.2228ZM137.224 26.1886V22.7769V19.3677V15.956V12.5469H139.662H142.099H144.539H146.977C147.998 12.5469 148.878 12.7163 149.644 13.0286C150.409 13.3436 151.062 13.8253 151.571 14.4235C152.081 15.019 152.477 15.731 152.733 16.5542C152.99 17.3773 153.13 18.2879 153.13 19.2831C153.13 20.2783 152.99 21.2152 152.733 22.0384C152.477 22.8642 152.081 23.6027 151.542 24.2273C151.004 24.852 150.352 25.3073 149.557 25.6487C148.764 25.9901 147.827 26.1595 146.75 26.1595H144.367H141.986H139.606L137.224 26.1886Z" fill="white"/>
<path d="M126.759 99.2597V81.7509V64.2448H128.404H130.05V81.7509V99.2597H128.404H126.759Z" fill="white"/>
<path d="M155.995 81.9785C155.485 80.0172 154.605 78.5403 153.415 77.516C152.195 76.5208 150.663 76.01 148.764 75.9808C147.317 76.01 146.097 76.3223 145.049 76.8622C144 77.4022 143.177 78.2545 142.527 79.3344C141.846 80.4143 141.362 81.5815 141.022 82.8017C140.684 84.0245 140.541 85.3321 140.541 86.7243C140.541 88.0901 140.71 89.3685 141.022 90.5913C141.336 91.8115 141.817 92.9205 142.469 94.0005C143.121 95.0803 143.942 95.9035 144.993 96.4726C146.042 97.0417 147.288 97.3249 148.735 97.354C150.861 97.3249 152.564 96.7293 153.782 95.6203C155.031 94.4848 155.823 92.8067 156.193 90.5913H157.695H159.198C158.971 92.01 158.574 93.2911 158.036 94.3975C157.497 95.5356 156.79 96.5017 155.91 97.354C155.06 98.2062 154.009 98.86 152.818 99.3153C151.627 99.7705 150.267 99.969 148.735 99.9981C146.837 99.969 145.162 99.6276 143.744 98.9739C142.326 98.32 141.164 97.3831 140.256 96.1311C139.35 94.911 138.669 93.4896 138.215 91.9253C137.763 90.3637 137.536 88.63 137.536 86.7243C137.536 84.906 137.79 83.2014 138.273 81.6371C138.753 80.0755 139.493 78.6541 140.457 77.3466C141.392 76.0682 142.553 75.073 143.942 74.4192C145.334 73.7654 146.921 73.424 148.735 73.3684C151.601 73.3393 153.869 74.0487 155.54 75.47C157.215 76.8913 158.318 79.0803 158.831 81.9494H157.384H155.995V81.9785Z" fill="white"/>
<path d="M175.417 99.9399C173.83 99.9135 172.357 99.6276 171.023 99.0586C169.69 98.4921 168.499 97.6372 167.479 96.5308C166.373 95.4218 165.549 94.0587 165.01 92.4098C164.445 90.7607 164.16 88.8577 164.16 86.6687C164.16 84.763 164.387 83.0294 164.87 81.4386C165.351 79.8744 166.032 78.4557 166.996 77.2037C167.931 75.9544 169.122 75.0148 170.513 74.3901C171.929 73.7654 173.574 73.424 175.446 73.3949C177.345 73.424 178.99 73.7654 180.437 74.3901C181.855 75.0148 183.046 75.9809 183.981 77.2037C184.916 78.4557 185.597 79.8744 186.051 81.4386C186.506 83.0029 186.733 84.763 186.733 86.6687C186.704 88.6856 186.447 90.504 185.938 92.0974C185.428 93.6881 184.662 95.0804 183.669 96.245C182.677 97.4678 181.486 98.3783 180.097 99.003C178.737 99.5985 177.176 99.9399 175.417 99.9399ZM183.725 86.6687C183.754 85.1336 183.585 83.7414 183.273 82.4629C182.959 81.1819 182.478 80.0464 181.826 79.0511C181.174 78.056 180.324 77.2884 179.246 76.7775C178.169 76.2667 176.893 76.01 175.388 75.9809C173.915 76.01 172.639 76.2958 171.591 76.8358C170.54 77.3757 169.69 78.1698 169.037 79.2206C168.385 80.274 167.904 81.4095 167.593 82.6614C167.281 83.9107 167.109 85.2183 167.109 86.6396C167.109 88.2303 167.278 89.6517 167.648 90.9302C168.018 92.2112 168.557 93.3176 169.264 94.2837C169.946 95.2789 170.825 96.0174 171.844 96.5308C172.866 97.0417 174.057 97.2984 175.388 97.2984C176.864 97.2693 178.14 96.9861 179.217 96.4461C180.295 95.9035 181.145 95.0804 181.826 94.0005C182.449 92.9497 182.933 91.8115 183.244 90.5913C183.556 89.3685 183.725 88.061 183.725 86.6687Z" fill="white"/>
<path d="M195.579 99.2596H194.19H192.798V86.6396V74.0194H194.19H195.579V75.7822V77.545C196.118 76.8913 196.712 76.3222 197.28 75.8113C197.874 75.3005 198.471 74.8744 199.094 74.5038C199.717 74.1332 200.369 73.8501 201.08 73.6807C201.787 73.4795 202.582 73.3948 203.403 73.3948C204.964 73.3684 206.353 73.6224 207.6 74.2206C208.849 74.8162 209.926 75.7267 210.861 76.976C211.146 77.4021 211.4 77.8574 211.571 78.3126C211.74 78.7679 211.854 79.2205 211.938 79.7048C211.996 80.1892 212.026 80.6709 212.052 81.1818C212.081 81.6953 212.081 82.2061 212.081 82.7461V90.9883V99.2305H210.663H209.274V91.0174V82.8016C209.303 80.528 208.791 78.8235 207.742 77.6879C206.694 76.5498 205.107 75.9808 202.978 75.9808C202.099 76.0099 201.307 76.1237 200.57 76.3805C199.831 76.6345 199.207 76.976 198.64 77.4603C198.074 77.9156 197.591 78.4556 197.195 79.0219C196.796 79.591 196.458 80.2157 196.202 80.8986C195.975 81.6662 195.806 82.4337 195.719 83.2278C195.605 84.0245 195.579 84.8503 195.579 85.6734V92.4652V99.2596Z" fill="white"/>
<path d="M233.519 99.2597V81.7509V64.2448H239.727H245.938C247.071 64.2448 248.093 64.3003 248.998 64.4142C249.907 64.528 250.728 64.7 251.468 64.9541C252.175 65.24 252.828 65.5523 253.395 65.8938C253.963 66.2616 254.415 66.6322 254.813 67.0848C255.579 68.0244 256.144 69.0753 256.514 70.2399C256.884 71.4071 257.053 72.6564 257.053 74.0195C257.024 75.9252 256.657 77.516 255.975 78.8235C255.294 80.1311 254.275 81.1263 252.941 81.8091C251.637 82.5185 250.219 83.0293 248.745 83.3416C247.269 83.6831 245.711 83.826 244.066 83.7969H240.437H236.806V91.5283V99.2597H235.161H233.519ZM244.066 80.9834C245.597 81.0125 246.931 80.8987 248.122 80.6419C249.313 80.4142 250.332 80.0464 251.211 79.562C252.033 79.0803 252.658 78.3418 253.084 77.3757C253.509 76.407 253.707 75.1868 253.736 73.7654C253.762 71.5474 253.026 69.8719 251.581 68.7338C250.134 67.5983 247.95 67.0292 245.029 67.0292H240.918H236.806V74.0195V81.0125H240.437L244.066 80.9834Z" fill="white"/>
<path d="M263.348 99.2597V81.7509V64.2448H264.737H266.126V81.7509V99.2597H264.737H263.348Z" fill="white"/>
<path d="M290.228 74.0486H291.617H293.006V86.6686V99.2861H291.617H290.228V97.5524V95.7923C290.059 95.9908 289.887 96.2184 289.66 96.4169C289.462 96.6446 289.235 96.843 289.008 97.0972C288.781 97.3539 288.527 97.5815 288.242 97.8092C287.96 98.0368 287.677 98.2644 287.365 98.492C287.051 98.6906 286.74 98.86 286.399 99.032C286.061 99.2014 285.662 99.3443 285.266 99.4582C284.841 99.5984 284.387 99.7122 283.906 99.7996C283.423 99.8843 282.913 99.9398 282.375 99.9398C280.785 99.9134 279.425 99.6858 278.289 99.2305C277.157 98.7753 276.277 98.0924 275.654 97.211C275.002 96.3587 274.492 95.3635 274.18 94.2836C273.866 93.2036 273.697 91.9835 273.726 90.6469V82.349V74.0486H275.115H276.504V82.3199V90.5912C276.475 92.8067 276.987 94.4848 278.036 95.6202C279.084 96.7292 280.671 97.3248 282.8 97.3248C283.991 97.2983 285.039 97.0707 285.947 96.6154C286.853 96.1602 287.648 95.4773 288.3 94.5986C288.953 93.7437 289.433 92.7511 289.747 91.6129C290.059 90.4774 290.228 89.1964 290.228 87.7777V80.8986V74.0486Z" fill="white"/>
<path d="M302.336 91.3854C302.705 93.4314 303.498 94.9374 304.718 95.9326C305.938 96.9279 307.583 97.4122 309.651 97.354C310.702 97.3249 311.581 97.211 312.344 96.9569C313.11 96.7002 313.736 96.3588 314.216 95.9035C314.7 95.4509 315.067 94.9665 315.323 94.4266C315.579 93.8866 315.69 93.2911 315.69 92.6638C315.69 92.2112 315.634 91.8115 315.55 91.4145C315.465 91.0175 315.294 90.7025 315.096 90.4193C314.869 90.1361 314.613 89.8793 314.301 89.6517C313.989 89.4241 313.678 89.2256 313.281 89.0827C313.139 88.998 312.97 88.9133 312.772 88.8285C312.571 88.7438 312.373 88.6565 312.146 88.6009C311.919 88.5162 311.692 88.458 311.467 88.3733L310.786 88.2039C310.303 88.1165 309.822 88.0027 309.339 87.918C308.858 87.8333 308.346 87.7195 307.865 87.6348C307.638 87.5501 307.382 87.4628 307.155 87.3781C306.93 87.2934 306.703 87.2378 306.476 87.1796C306.249 87.124 306.022 87.0657 305.766 87.0102C305.539 86.9519 305.285 86.8672 305.058 86.7825C304.575 86.6396 304.123 86.4702 303.696 86.2691C303.271 86.0706 302.875 85.8721 302.505 85.6153C302.138 85.3612 301.797 85.0489 301.485 84.7366C301.174 84.3951 300.918 84.0246 300.691 83.6275C300.463 83.2014 300.294 82.7461 300.181 82.2618C300.067 81.7509 300.012 81.211 300.012 80.6154C300.012 79.5355 300.21 78.5694 300.577 77.688C300.947 76.8067 301.541 76.0682 302.307 75.3853C303.043 74.7316 303.923 74.2472 304.974 73.9084C306.022 73.5669 307.213 73.3949 308.547 73.3949C311.267 73.3393 313.395 73.9639 314.982 75.3006C316.569 76.6346 317.533 78.625 317.958 81.3248H316.514H315.067C314.953 80.3587 314.7 79.5064 314.359 78.8235C314.018 78.1406 313.535 77.5742 312.97 77.1745C312.373 76.7775 311.692 76.4943 310.955 76.2958C310.218 76.0947 309.397 76.01 308.489 76.01C306.674 76.0682 305.314 76.4361 304.377 77.1745C303.442 77.9157 302.988 78.9665 302.988 80.3587C302.988 80.7557 303.043 81.1554 303.157 81.4968C303.271 81.8356 303.442 82.148 303.696 82.4046C303.923 82.6614 304.179 82.9155 304.461 83.1431C304.747 83.3708 305.087 83.5693 305.454 83.7413C306.22 84.0827 307.071 84.3951 307.95 84.6492C308.829 84.906 309.793 85.1627 310.786 85.3612C311.296 85.475 311.779 85.6153 312.26 85.7583C312.743 85.9012 313.224 86.0441 313.707 86.2135C314.161 86.3829 314.613 86.5841 315.04 86.7825C315.465 87.0102 315.833 87.2378 316.202 87.521C316.569 87.7778 316.91 88.0901 317.222 88.4315C317.533 88.7703 317.789 89.1409 318.016 89.567C318.214 89.9931 318.386 90.4484 318.471 90.9592C318.584 91.4701 318.61 92.0392 318.61 92.6373C318.584 93.831 318.357 94.911 317.903 95.8188C317.449 96.7293 316.741 97.4969 315.833 98.1215C314.898 98.7462 313.849 99.2306 312.658 99.5429C311.467 99.8552 310.134 100.025 308.687 100.025C307.242 99.9982 305.964 99.7996 304.86 99.3735C303.754 98.9447 302.79 98.3201 302.024 97.4969C301.229 96.7002 300.635 95.8188 300.181 94.7972C299.756 93.802 299.5 92.6929 299.415 91.4701H300.833H302.336V91.3854Z" fill="white"/>
<rect x="0.388672" y="0.300049" width="101.166" height="101.4" fill="#F7E82E"/>
<path fill-rule="evenodd" clip-rule="evenodd" d="M20.7843 37.046C23.4963 35.5452 27.2937 34.3647 30.3358 34.3647C36.1453 34.3647 37.4896 37.046 40.3442 37.046C43.1987 37.046 46.1299 34.3647 51.4088 34.3647C56.2123 34.3647 58.7499 37.046 63.0173 37.046C67.2954 37.046 66.4055 34.3647 72.4263 34.3647C78.4155 34.3647 81.1566 37.046 81.1566 37.046V43.8854C81.1566 43.8854 77.9587 41.0321 72.9333 40.9633C67.9449 40.9051 68.077 43.8854 63.0306 43.8854C57.9817 43.8854 57.5775 40.9633 51.6492 40.9633C45.7233 40.9633 44.8281 43.8854 40.2516 43.8854C35.6595 43.8854 34.8013 40.8442 30.0189 40.9051C25.2391 40.9633 20.7843 43.8854 20.7843 43.8854V37.046Z" fill="#28A8E0"/>
<path fill-rule="evenodd" clip-rule="evenodd" d="M20.7843 52.9984C23.4963 51.495 27.2937 50.3172 30.3358 50.3172C36.1453 50.3172 37.4896 52.9984 40.3442 52.9984C43.1987 52.9984 46.1299 50.3172 51.4088 50.3172C56.2123 50.3172 58.7499 52.9984 63.0173 52.9984C67.2954 52.9984 66.4055 50.3172 72.4263 50.3172C78.4155 50.3172 81.1566 52.9984 81.1566 52.9984V59.8405C81.1566 59.8405 77.9587 56.966 72.9333 56.9157C67.9449 56.8654 68.077 59.8405 63.0306 59.8405C57.9817 59.8405 57.5775 56.9157 51.6492 56.9157C45.7233 56.9157 44.8281 59.8405 40.2516 59.8405C35.6595 59.8405 34.8013 56.8045 30.0189 56.8654C25.2391 56.9157 20.7843 59.8405 20.7843 59.8405V52.9984Z" fill="#28A8E0"/>
<path fill-rule="evenodd" clip-rule="evenodd" d="M20.7843 68.935C23.4963 67.4263 27.2937 66.2538 30.3358 66.2538C36.1453 66.2538 37.4896 68.935 40.3442 68.935C43.1987 68.935 46.1299 66.2538 51.4088 66.2538C56.2123 66.2538 58.7499 68.935 63.0173 68.935C67.2954 68.935 66.4055 66.2538 72.4263 66.2538C78.4155 66.2538 81.1566 68.935 81.1566 68.935V75.7982C81.1566 75.7982 77.9587 72.9211 72.9333 72.8603C67.9449 72.8073 68.077 75.7982 63.0306 75.7982C57.9817 75.7982 57.5775 72.8603 51.6492 72.8603C45.7233 72.8603 44.8281 75.7982 40.2516 75.7982C35.6595 75.7982 34.8013 72.7517 30.0189 72.8073C25.2391 72.8603 20.7843 75.7982 20.7843 75.7982V68.935Z" fill="#28A8E0"/>
<path fill-rule="evenodd" clip-rule="evenodd" d="M48.1093 91.0593L55.7673 52.4921L28.558 64.487L44.4595 13.847H57.4128L42.3164 48.9539L69.1829 38.0605L48.1093 91.0593Z" fill="#E62A2B"/>
</svg>
